<?xml version="1.0" standalone="no"?>
<!DOCTYPE svg PUBLIC "-//W3C//DTD SVG 20010904//EN"
 "http://www.w3.org/TR/2001/REC-SVG-20010904/DTD/svg10.dtd">
<svg version="1.0" xmlns="http://www.w3.org/2000/svg"
 width="413.000000pt" height="604.000000pt" viewBox="0 0 413.000000 604.000000"
 preserveAspectRatio="xMidYMid meet">

<g transform="translate(0.000000,604.000000) scale(0.100000,-0.100000)"
fill="#000000" stroke="none">
<path d="M2425 5998 c-4 -18 -22 -60 -41 -94 -22 -41 -35 -80 -39 -118 -6 -60
-45 -168 -64 -174 -7 -2 -11 18 -11 61 0 42 -9 91 -25 141 -14 42 -25 84 -25
94 -1 10 -8 3 -20 -18 -38 -70 -52 -106 -59 -148 l-6 -43 -52 98 c-60 112 -76
133 -118 158 -29 18 -29 17 4 -12 33 -28 35 -33 42 -119 4 -49 11 -119 15
-156 4 -38 5 -68 2 -68 -3 0 -17 18 -32 40 -15 22 -52 70 -83 107 -31 37 -69
89 -84 117 l-27 49 -12 -44 c-27 -100 -11 -437 28 -584 10 -39 31 -90 46 -114
15 -23 24 -46 21 -49 -4 -4 -68 -8 -143 -8 -178 -2 -172 -2 -172 -20 0 -42 34
-158 57 -191 14 -20 32 -60 40 -87 8 -28 24 -71 35 -95 l19 -44 19 31 c11 18
24 32 30 32 15 0 12 -18 -5 -27 -22 -13 -54 -80 -48 -103 3 -12 -1 -22 -9 -25
-9 -4 -21 -24 -28 -46 -10 -29 -19 -39 -34 -39 -48 0 -63 12 -91 71 -41 85
-64 103 -131 104 -31 0 -58 -3 -60 -7 -3 -5 10 -8 28 -8 56 0 60 -8 52 -90
l-7 -72 -91 7 c-85 6 -93 5 -110 -14 -11 -12 -31 -21 -49 -21 -17 0 -27 3 -24
7 4 3 -14 20 -40 37 -26 17 -48 36 -50 42 -6 19 58 3 110 -28 32 -19 53 -26
59 -20 16 16 -30 39 -125 64 -129 33 -128 21 11 -94 45 -38 82 -74 82 -79 0
-6 29 -40 65 -75 36 -36 65 -67 65 -69 0 -3 -14 -5 -31 -5 -34 0 -92 -24 -110
-46 -9 -12 2 -20 66 -50 65 -30 85 -35 124 -30 42 5 44 4 27 -9 -11 -8 -26
-15 -33 -15 -18 0 -16 -19 2 -26 18 -7 12 -20 -14 -27 -13 -3 -18 0 -15 8 3 6
-2 18 -11 25 -14 12 -22 7 -59 -33 -47 -52 -61 -57 -69 -27 -3 11 -12 20 -21
20 -26 0 -6 -29 34 -50 31 -16 37 -24 36 -49 -1 -17 -4 -31 -8 -31 -14 0 -19
-68 -9 -107 14 -51 70 -103 111 -103 16 0 32 5 35 10 3 6 0 10 -7 10 -9 0 -9
3 2 10 8 6 34 9 57 8 24 -1 46 1 49 5 4 4 -4 7 -19 7 -14 0 -33 7 -42 16 -13
13 -21 14 -41 6 -13 -7 -24 -16 -24 -22 0 -5 -8 -10 -18 -10 -21 0 -52 29 -52
48 0 11 6 14 40 16 9 1 16 13 18 31 3 30 0 34 -58 89 -35 33 -25 41 55 42 55
0 79 5 93 17 26 23 32 21 33 -10 1 -16 7 1 14 37 19 95 36 150 46 150 12 0 11
-27 -2 -52 -6 -12 -11 -43 -10 -70 0 -26 -4 -60 -10 -75 -6 -15 -6 -29 -1 -31
4 -1 6 -24 3 -50 -3 -26 -5 -69 -4 -97 1 -27 3 -82 4 -122 2 -70 3 -72 23 -61
19 10 20 10 7 -6 -12 -14 -12 -16 3 -10 9 3 16 1 16 -5 0 -6 -4 -11 -10 -11
-5 0 -11 -10 -11 -22 -1 -21 -2 -21 -6 -3 -3 11 -9 24 -14 30 -9 9 -4 -110 6
-161 3 -12 7 -39 10 -60 12 -83 27 -143 59 -237 l33 -99 -25 -69 c-24 -66 -24
-70 -7 -89 14 -15 17 -31 13 -75 -3 -31 -1 -58 4 -61 4 -3 8 -20 8 -38 0 -39
-21 -60 -93 -96 -43 -21 -52 -29 -49 -49 2 -19 0 -21 -12 -12 -11 9 -15 8 -20
-4 -9 -25 -26 -17 -26 13 0 16 -9 37 -20 47 -24 22 -26 77 -5 128 8 20 15 58
15 85 0 45 -4 53 -56 110 -44 49 -65 65 -106 77 -65 19 -158 19 -203 1 -40
-17 -43 -30 -15 -66 11 -14 20 -30 20 -37 0 -7 23 -31 50 -55 53 -45 135 -159
128 -179 -2 -6 -40 16 -85 50 l-82 60 -133 -55 c-168 -69 -223 -98 -274 -145
-23 -20 -55 -44 -70 -52 -16 -8 -37 -24 -48 -35 -17 -19 -17 -24 -4 -64 l15
-43 21 40 c35 66 63 90 127 109 33 10 81 31 106 47 25 16 54 29 65 29 14 0 9
-6 -16 -21 -66 -40 -140 -115 -140 -141 0 -12 47 1 95 25 26 13 71 23 130 27
53 5 135 21 200 40 119 35 180 39 229 13 17 -9 37 -19 45 -22 20 -10 9 -26
-15 -23 -12 1 -27 -4 -34 -13 -7 -8 -18 -15 -24 -15 -7 0 -34 -11 -62 -24 -27
-14 -74 -34 -104 -45 -41 -15 -71 -36 -111 -80 -31 -32 -90 -84 -131 -114 -89
-66 -117 -97 -153 -172 -22 -43 -26 -65 -22 -96 3 -23 9 -45 14 -50 6 -6 31
22 62 68 28 43 80 111 114 152 62 74 173 178 181 170 3 -2 6 -76 8 -164 l4
-160 53 -26 c29 -15 72 -45 94 -67 52 -49 116 -92 138 -92 14 0 17 16 20 108
4 104 6 112 47 193 41 83 42 89 42 181 0 52 3 98 6 101 4 4 33 -17 64 -46 31
-29 72 -58 91 -63 23 -6 35 -16 36 -29 1 -11 8 -51 17 -90 8 -38 17 -95 21
-125 3 -30 8 -66 10 -80 3 -14 9 -56 14 -95 5 -38 25 -180 45 -315 30 -211 57
-419 73 -565 11 -102 58 -412 95 -625 22 -129 43 -252 45 -273 5 -36 6 -37 45
-37 37 0 40 2 34 23 -10 31 -24 130 -31 207 -3 36 -14 103 -25 150 -20 84 -84
486 -100 630 -21 181 -71 556 -90 680 -12 74 -21 144 -22 155 0 11 -4 43 -10
72 -5 29 -13 96 -19 150 -5 54 -13 132 -19 173 -15 122 -13 387 4 445 8 28 17
82 21 120 5 62 16 118 33 165 2 8 6 22 7 30 1 8 12 42 23 75 12 33 37 112 56
175 32 105 39 120 88 172 29 32 68 85 86 118 l33 61 -37 -16 c-21 -8 -44 -20
-51 -27 -7 -6 -16 -9 -18 -6 -6 6 57 148 66 148 9 0 91 -91 141 -157 37 -49
40 -57 49 -153 15 -163 53 -237 190 -370 42 -41 93 -99 112 -128 l36 -53 8 38
c15 78 8 125 -34 218 -23 50 -47 117 -53 151 -10 50 -22 74 -65 128 -66 82
-98 136 -125 210 -25 65 -53 90 -161 140 -55 26 -65 33 -39 29 39 -7 80 -25
124 -56 41 -29 99 -58 104 -52 8 8 -29 97 -60 148 -17 26 -48 62 -71 81 -47
39 -45 54 11 90 21 13 60 48 85 77 l45 52 12 -44 c6 -24 14 -53 17 -64 3 -11
24 -54 47 -95 22 -41 52 -109 67 -150 35 -100 55 -146 67 -154 6 -3 23 29 41
75 26 68 31 95 31 168 0 49 3 121 6 162 l7 74 34 -32 c19 -18 46 -36 61 -40
69 -17 111 -42 130 -80 11 -21 46 -67 79 -103 32 -36 69 -78 80 -93 l22 -28
11 43 c10 35 9 57 -4 116 -20 90 -34 124 -80 186 -19 28 -33 52 -30 55 8 9
219 -217 310 -332 99 -124 194 -271 194 -299 0 -23 57 -169 71 -183 31 -30
-57 262 -96 319 -14 20 -25 41 -25 47 0 28 -63 120 -132 191 -19 20 -38 51
-42 70 -12 60 -50 103 -123 140 -38 20 -97 56 -132 81 -146 108 -251 150 -346
140 l-40 -5 -2 68 c-1 53 2 70 15 81 38 28 88 5 126 -59 l24 -40 17 25 c9 15
14 31 10 37 -4 6 7 10 30 10 37 0 95 24 95 39 0 5 3 16 6 25 4 12 0 16 -15 16
-19 0 -20 3 -11 20 6 11 18 20 28 20 16 1 16 1 0 13 -15 12 -14 16 9 46 14 17
22 35 19 38 -12 13 -131 2 -148 -14 -18 -17 -38 -10 -38 13 0 19 -37 93 -59
117 -15 18 -14 20 8 38 25 21 110 49 150 50 24 0 24 1 6 9 -20 8 -20 9 1 9 11
1 23 4 27 7 7 7 -81 54 -101 54 -7 0 -15 7 -18 15 -9 22 -24 19 -91 -16 l-59
-30 -40 38 c-68 64 -93 82 -97 69 -3 -6 -5 4 -4 22 0 25 2 30 9 18 8 -14 11
-14 32 -1 19 13 46 54 46 70 0 2 -21 5 -47 7 -42 3 -50 7 -80 46 l-33 43 22
30 c25 33 54 37 75 12 8 -10 12 -13 9 -7 -6 13 15 24 43 24 21 0 101 82 124
126 40 77 52 196 24 232 -17 22 -27 13 -15 -14 10 -20 9 -27 -2 -34 -8 -5 -15
-19 -15 -32 -4 -74 -5 -76 -25 -71 -14 4 -21 -1 -26 -21 -3 -15 -4 -29 -1 -32
10 -10 -15 -64 -29 -64 -10 0 -12 10 -8 43 4 23 10 50 15 60 7 11 6 17 -1 17
-6 0 -8 11 -4 27 7 26 6 27 -9 11 -9 -9 -17 -21 -17 -26 0 -5 -9 -17 -20 -27
-11 -10 -20 -23 -20 -30 0 -8 -22 -12 -72 -11 -40 1 -88 -2 -105 -6 -38 -7
-38 -12 -17 88 12 56 13 79 5 82 -18 6 -13 29 19 79 17 26 28 53 26 60 -3 6 0
14 7 17 9 3 9 5 0 5 -7 1 -5 22 9 68 25 83 20 172 -12 227 -12 20 -23 36 -25
36 -2 0 -6 -15 -10 -32z m36 -82 c2 -25 0 -42 -5 -38 -5 3 -7 -5 -4 -16 4 -12
3 -20 -2 -17 -4 3 -11 -12 -15 -33 -3 -20 -16 -57 -27 -82 -16 -37 -21 -42
-27 -26 -6 15 -12 7 -31 -37 -13 -31 -26 -55 -28 -53 -3 4 24 96 40 136 10 24
11 24 19 5 6 -14 7 -8 3 17 -7 43 11 106 37 131 11 10 19 27 19 37 0 39 18 19
21 -24z m-146 -365 c-4 -17 -11 -31 -16 -31 -12 0 -12 17 1 25 6 3 10 16 10
27 0 12 3 19 6 15 3 -3 3 -19 -1 -36z m196 -269 c-7 -2 -18 1 -23 6 -8 8 -4 9
13 5 13 -4 18 -8 10 -11z m-391 -129 c-1 -27 -1 -27 -15 -9 -14 19 -12 36 6
36 5 0 9 -12 9 -27z m-15 -82 c8 -14 -13 -24 -33 -16 -14 5 -14 7 -2 15 19 12
27 12 35 1z m85 -45 c0 -2 -7 -7 -16 -10 -8 -3 -12 -2 -9 4 6 10 25 14 25 6z
m127 -82 c-3 -3 -12 -4 -19 -1 -8 3 -5 6 6 6 11 1 17 -2 13 -5z m-96 -20 c14
-17 5 -40 -24 -58 -25 -16 -42 5 -27 34 8 15 8 20 1 16 -6 -4 -11 -3 -11 2 0
26 41 30 61 6z m413 -77 c8 -12 12 -34 9 -48 l-5 -26 -38 41 c-44 47 -44 60 0
27 43 -31 37 -8 -7 29 l-38 32 32 -16 c18 -9 39 -26 47 -39z m-411 -34 c3 -5
8 -43 12 -85 7 -74 6 -78 -12 -78 -17 0 -23 13 -37 71 -10 39 -15 77 -12 85 6
15 41 20 49 7z m684 1 c-3 -3 -12 -4 -19 -1 -8 3 -5 6 6 6 11 1 17 -2 13 -5z
m-288 -95 c13 -17 19 -34 14 -38 -88 -59 -117 -63 -111 -14 3 23 9 29 41 34
46 7 58 18 29 26 -12 3 -19 9 -16 14 9 15 19 10 43 -22z m-1114 -123 c2 -14
10 -39 18 -56 13 -24 13 -30 2 -30 -7 0 -20 -2 -28 -6 -11 -4 -14 7 -14 53 -1
58 4 79 14 69 3 -3 7 -17 8 -30z m1155 -5 c0 -5 -5 -22 -11 -37 -8 -22 -6 -38
7 -72 11 -31 13 -47 6 -54 -8 -8 -18 6 -36 47 -15 32 -26 60 -26 62 0 3 10 18
23 33 22 30 37 37 37 21z m-185 -86 c-21 -25 -41 -42 -46 -39 -5 3 -9 0 -9 -6
0 -6 -4 -8 -10 -5 -5 3 -10 1 -10 -4 0 -13 2 -14 36 -1 24 10 26 9 14 -5 -8
-9 -26 -23 -41 -31 -26 -13 -28 -13 -24 7 4 17 2 19 -10 9 -8 -7 -15 -10 -15
-7 0 8 82 87 90 87 4 0 17 9 30 20 36 31 34 24 -5 -25z m-85 -10 c0 -12 -19
-12 -23 0 -4 9 -1 12 9 8 7 -3 14 -7 14 -8z m-946 -47 c3 -13 6 -34 6 -47 0
-18 -4 -22 -17 -16 -30 11 -38 11 -35 -3 1 -8 -2 -11 -7 -8 -10 6 -36 -15 -44
-36 -4 -10 -8 -9 -16 2 -6 8 -11 11 -11 7 0 -11 -80 72 -80 83 0 15 37 12 72
-6 31 -16 31 -16 26 10 -5 23 -2 25 36 29 23 2 46 4 52 5 7 1 14 -8 18 -20z
m90 6 c9 -3 16 -11 16 -16 0 -6 -7 -7 -16 -4 -11 4 -18 -1 -21 -14 -5 -18 -43
-30 -43 -12 1 44 24 61 64 46z m586 -28 c-5 -5 -10 -21 -10 -35 l0 -25 -16 22
c-8 12 -22 22 -30 22 -13 0 -20 31 -8 42 3 3 21 1 40 -5 23 -7 31 -14 24 -21z
m-481 15 c10 -7 8 -12 -10 -24 -12 -9 -26 -14 -31 -11 -12 8 -10 32 5 37 18 8
21 8 36 -2z m391 -113 c0 -10 4 -17 9 -14 11 7 21 -17 21 -47 0 -18 -2 -19
-10 -7 -11 17 -13 10 -10 -41 1 -29 -7 -46 -44 -89 -25 -29 -52 -68 -61 -86
-9 -19 -18 -34 -20 -34 -2 0 -10 -3 -19 -6 -12 -5 -16 0 -16 21 0 15 -9 40
-20 56 l-21 28 40 20 c45 23 60 41 36 41 -12 0 -8 8 14 25 34 29 83 128 74
150 -4 11 -1 13 11 9 9 -3 16 -15 16 -26z m-403 16 c-3 -3 -12 -4 -19 -1 -8 3
-5 6 6 6 11 1 17 -2 13 -5z m483 -30 c22 -15 40 -29 39 -33 0 -3 -13 -16 -30
-29 -29 -23 -29 -23 -29 -2 0 11 -7 36 -14 55 -8 19 -13 35 -10 35 2 0 22 -12
44 -26z m-485 -149 c8 -27 25 -81 39 -120 26 -70 33 -103 17 -75 -12 20 -82
225 -92 270 -4 19 -5 46 -1 60 5 20 8 15 15 -30 4 -30 14 -77 22 -105z m781
75 c-2 -54 -7 -77 -25 -101 -13 -17 -24 -29 -27 -27 -2 2 4 26 12 53 8 28 13
65 10 84 -5 33 6 61 25 61 4 0 7 -31 5 -70z m244 29 c0 -6 -4 -7 -10 -4 -5 3
-10 11 -10 16 0 6 5 7 10 4 6 -3 10 -11 10 -16z m-308 -41 c0 -13 1 -30 0 -38
0 -8 -2 -33 -3 -55 -3 -44 -8 -54 -57 -110 -19 -20 -37 -34 -42 -29 -4 5 -3
51 4 103 11 88 14 95 46 122 42 35 50 36 52 7z m-960 0 c-9 -9 -15 -9 -24 0
-9 9 -7 12 12 12 19 0 21 -3 12 -12z m-22 -32 c0 -18 -16 -29 -30 -21 -6 4 -5
11 3 20 16 18 27 19 27 1z m840 -94 l0 -69 -28 5 c-26 3 -30 10 -41 54 -6 28
-10 52 -9 53 68 38 78 33 78 -43z m-178 26 c-7 -7 -12 -8 -12 -2 0 14 12 26
19 19 2 -3 -1 -11 -7 -17z m78 -78 c12 -8 9 -9 -12 -8 -15 1 -24 6 -22 10 7
10 16 10 34 -2z m-335 -72 c14 -6 25 -15 25 -19 0 -4 10 -5 23 -2 l22 5 -24
-21 c-43 -38 -81 -24 -81 30 0 22 1 23 35 7z m-185 -58 c0 -48 -1 -49 -18 -32
-22 21 -23 53 -3 69 9 7 17 13 19 13 1 0 2 -22 2 -50z m314 25 c-5 -11 3 -14
35 -12 31 1 47 -4 64 -21 22 -23 22 -23 3 -38 -11 -8 -30 -14 -41 -14 -12 0
-30 -9 -41 -21 -10 -11 -34 -27 -53 -35 -19 -8 -59 -31 -89 -51 -59 -38 -138
-67 -147 -53 -3 5 9 10 27 12 30 3 33 6 36 41 3 32 7 37 28 37 18 0 24 -5 24
-21 0 -19 2 -20 16 -8 10 8 12 15 5 17 -6 2 -8 20 -4 48 6 47 4 50 -30 33 -20
-10 -20 -10 -7 4 12 12 166 97 176 97 2 0 1 -7 -2 -15z m326 6 c0 -12 -20 -25
-27 -18 -7 7 6 27 18 27 5 0 9 -4 9 -9z m-524 -43 c-19 -26 -21 -50 -3 -28 7
8 19 16 27 18 8 1 2 -9 -15 -23 -46 -38 -60 -32 -34 15 13 22 27 40 31 40 5 0
2 -10 -6 -22z m-401 -19 c0 -7 -8 -15 -17 -17 -18 -3 -25 18 -11 32 10 10 28
1 28 -15z m405 -42 c0 -2 -10 -12 -22 -23 l-23 -19 19 23 c18 21 26 27 26 19z
m288 -63 c4 -3 1 -9 -6 -12 -8 -2 -36 -23 -62 -46 -27 -22 -72 -57 -99 -76
-47 -33 -51 -38 -49 -75 1 -61 -4 -118 -13 -136 -5 -10 -3 -21 4 -28 9 -10 8
-11 -5 -6 -9 4 -19 16 -21 28 -2 12 -5 2 -6 -23 -1 -43 -20 -96 -21 -60 0 10
-11 3 -30 -18 -25 -27 -30 -41 -30 -85 -1 -136 -37 -45 -75 185 -5 31 -2 37
14 43 22 7 49 60 77 150 12 37 24 57 41 64 34 15 43 6 38 -37 -13 -114 -15
-182 -7 -182 5 0 10 12 10 28 1 15 2 69 4 119 3 91 12 121 21 66 3 -20 4 -15
6 15 1 42 2 43 64 73 46 23 72 29 100 25 21 -2 42 -8 45 -12z m-398 -110 c0
-18 -23 -44 -40 -44 -6 0 -4 10 5 24 15 23 15 25 -2 29 -12 3 -9 5 10 6 18 1
27 -4 27 -15z m472 -12 c-7 -2 -12 -9 -12 -16 0 -6 -13 -43 -29 -81 -26 -61
-36 -74 -78 -98 -26 -16 -58 -38 -70 -50 -27 -24 -28 -17 -5 40 18 44 194 236
201 219 2 -6 -1 -12 -7 -14z m-425 -19 c-18 -92 -28 -128 -37 -137 -15 -15
-12 8 16 142 2 12 9 22 15 22 7 0 9 -11 6 -27z m122 -349 c-18 -22 -49 -37
-49 -24 0 5 7 10 15 10 9 0 12 6 9 15 -5 11 -2 13 10 9 11 -4 16 0 17 12 0 12
3 14 6 6 3 -7 -1 -20 -8 -28z m92 -255 c-11 -41 -30 -121 -41 -179 -30 -153
-32 -156 -46 -65 -23 146 -19 175 27 244 36 53 68 86 77 77 1 -2 -6 -37 -17
-77z m-130 -202 c-8 -8 -11 -7 -11 4 0 20 13 34 18 19 3 -7 -1 -17 -7 -23z
m-7 -99 c8 -5 7 -8 -1 -8 -7 0 -13 -6 -13 -14 0 -13 -41 -46 -56 -46 -11 0 4
82 22 125 l18 40 10 -45 c5 -25 14 -48 20 -52z m-64 -184 c42 -9 67 -62 73
-160 3 -40 10 -81 16 -93 24 -43 -9 -20 -36 27 -15 26 -47 70 -70 99 -28 34
-45 66 -49 93 -7 44 -2 47 66 34z m-16 -177 c78 -118 67 -129 -34 -33 -28 27
-60 67 -71 88 l-20 39 33 -3 c29 -3 40 -13 92 -91z"/>
<path d="M2406 5824 c-4 -14 -5 -28 -3 -31 3 -2 8 8 11 23 4 14 5 28 3 31 -3
2 -8 -8 -11 -23z"/>
<path d="M1827 3914 c-8 -8 1 -24 14 -24 5 0 9 7 9 15 0 15 -12 20 -23 9z"/>
<path d="M2529 5759 l-24 -20 28 17 c15 9 27 18 27 20 0 8 -8 4 -31 -17z"/>
<path d="M3110 5180 c-8 -15 -6 -21 11 -30 29 -16 49 -5 49 25 0 20 -5 25 -25
25 -14 0 -29 -8 -35 -20z"/>
<path d="M2860 4996 c0 -9 14 -15 40 -18 22 -2 40 -2 40 0 0 3 -66 32 -75 32
-3 0 -5 -6 -5 -14z"/>
<path d="M2937 4726 c-4 -9 3 -16 16 -20 26 -6 29 -4 21 18 -8 20 -30 21 -37
2z"/>
<path d="M1640 4659 c0 -5 4 -8 9 -4 5 3 17 -5 25 -17 9 -12 19 -18 23 -14 4
4 -3 16 -17 26 -28 22 -40 25 -40 9z"/>
<path d="M1120 4024 c-6 -14 -10 -55 -9 -92 l1 -67 14 59 c8 33 22 68 30 78
15 15 15 19 1 33 -21 21 -26 19 -37 -11z"/>
<path d="M1491 3904 c0 -11 3 -14 6 -6 3 7 2 16 -1 19 -3 4 -6 -2 -5 -13z"/>
</g>
</svg>
